<svg width="143" height="146" viewBox="0 0 143 146" fill="none" xmlns="http://www.w3.org/2000/svg">
<path d="M18.1223 105.162C20.3903 105.821 22.7014 106.148 25.0003 106.148C29.0864 106.148 33.1293 105.119 36.8088 103.091L90.5136 73.5335C96.4486 70.2671 100.504 64.8805 102.254 58.8346C102.303 58.8161 102.359 58.8038 102.408 58.773L139.362 38.4343C142.129 36.9121 142.906 32.9862 141.088 29.6889C140.244 28.1481 138.955 26.9586 137.464 26.33C135.868 25.6583 134.16 25.7076 132.774 26.4718L101.711 43.5682C101.286 42.4157 100.805 41.2756 100.195 40.1663C99.9917 39.7965 99.6527 39.5253 99.2521 39.4144C98.8577 39.2973 98.4201 39.3466 98.0503 39.55L4.06422 91.27C3.29999 91.689 3.02266 92.6505 3.44792 93.4147C6.60956 99.1648 11.8175 103.338 18.1223 105.162ZM134.303 29.2329C135.03 28.8323 135.831 29.0665 136.244 29.2329C137.07 29.578 137.834 30.2991 138.327 31.2051C139.288 32.9493 139.067 34.9891 137.84 35.6671L132.515 38.6007L128.972 32.1665L134.303 29.2329ZM126.21 33.6887L129.754 40.1229L103.049 54.8218C103.364 52.1286 103.24 49.3737 102.636 46.6619L126.21 33.6887ZM98.1377 43.0997C102.766 53.1885 98.8711 65.3364 88.9917 70.7717L35.2869 100.329C30.2825 103.09 24.4955 103.731 19.0046 102.135C14.0249 100.693 9.82166 97.5619 7.02353 93.2477L98.1377 43.0997ZM3.04241 42.0396C2.67262 43.0627 2.82671 44.2028 3.44917 45.0903C4.07164 45.9778 5.09476 46.5078 6.17946 46.5078H13.6245C14.7523 46.5078 15.7939 45.947 16.4102 45.0041C17.0265 44.0611 17.1312 42.8777 16.6814 41.8424L15.8555 39.9442C15.8432 39.9196 15.8185 39.8518 15.8678 39.7717C15.9233 39.6915 15.9911 39.6915 16.0219 39.6915C16.9772 39.6915 17.8893 39.2786 18.524 38.5637C19.1588 37.8488 19.4608 36.8997 19.3499 35.963C18.5302 28.9863 13.9079 25.8679 9.68622 25.8679C5.47065 25.8679 0.848342 28.9865 0.0225512 35.963C-0.0883846 36.9059 0.213601 37.855 0.848405 38.5637C1.48936 39.2786 2.39533 39.6915 3.35055 39.6915H3.63405C3.6587 39.6915 3.7265 39.6915 3.78196 39.7655C3.83743 39.8395 3.81278 39.9072 3.80661 39.9319L3.04241 42.0396ZM3.63407 36.5298H3.35673C3.28894 36.5298 3.23964 36.4928 3.16568 36.3264C3.75734 31.2789 6.8759 29.0171 9.69233 29.0171C12.5151 29.0171 15.6273 31.2789 16.1759 36.4621C16.1513 36.4929 16.1019 36.5299 16.0342 36.5299C14.9063 36.5299 13.8648 37.0969 13.2423 38.0337C12.626 38.9766 12.5213 40.16 12.9712 41.1953L13.797 43.0935C13.8093 43.1182 13.834 43.1859 13.7847 43.2661C13.7292 43.3462 13.6614 43.3462 13.6368 43.3462H6.19172C6.16707 43.3462 6.09927 43.3462 6.04381 43.2722C5.97601 43.1983 6.00067 43.1305 6.01299 43.112L6.77722 41.0043C7.14701 39.9812 6.99908 38.8411 6.37046 37.9536C5.74183 37.0599 4.72492 36.5298 3.63407 36.5298ZM31.9719 10.3125L30.24 11.73C29.4018 12.4202 28.9458 13.4742 29.0259 14.5589C29.106 15.6436 29.71 16.6235 30.6467 17.1782L37.044 20.9871C37.5678 21.3014 38.1595 21.4616 38.7511 21.4616C39.2503 21.4616 39.7495 21.3507 40.2117 21.1227C41.2286 20.6296 41.9189 19.662 42.0607 18.5465L42.3257 16.488C42.3257 16.4634 42.338 16.3894 42.4243 16.3524C42.5106 16.3031 42.5722 16.3463 42.5969 16.3586C43.4166 16.8455 44.4088 16.9626 45.321 16.6729C46.2332 16.3833 46.9728 15.7238 47.361 14.861C50.2269 8.45147 47.8541 3.3978 44.2302 1.24071C40.6063 -0.916379 35.0411 -0.608246 30.7638 4.96324C30.1845 5.71513 29.9565 6.68266 30.1352 7.61952C30.3139 8.56248 30.8871 9.38218 31.7129 9.86907L31.9533 10.0108C31.9718 10.0231 32.0334 10.0601 32.0396 10.1526C32.0457 10.245 31.9903 10.2882 31.9718 10.3066L31.9719 10.3125ZM32.2369 14.1705L33.9688 12.753C34.807 12.0627 35.263 11.0088 35.1829 9.92412C35.1028 8.83942 34.4988 7.85948 33.5621 7.30475L33.3279 7.163C33.2663 7.12602 33.2478 7.07055 33.2663 6.88566C36.3601 2.85501 40.1874 2.5038 42.6157 3.95201C45.0378 5.39416 46.5539 8.93168 44.3722 13.6649C44.3352 13.6772 44.2736 13.6834 44.2119 13.6464C43.2382 13.0671 42.0548 13.0178 41.0441 13.5108C40.0334 14.0039 39.3432 14.9653 39.1952 16.087L38.9302 18.1454C38.9302 18.1701 38.9178 18.2441 38.8316 18.281C38.7453 18.3242 38.6836 18.2872 38.659 18.2749L32.2617 14.466C32.2432 14.4537 32.1816 14.4167 32.1754 14.3243C32.1631 14.2318 32.2184 14.189 32.2369 14.1705ZM16.226 56.8011C16.3616 60.4373 18.7837 63.4141 23.4306 65.639C26.5305 67.1181 29.606 67.8639 32.6443 67.8639C34.8075 67.8639 36.9523 67.488 39.0539 66.7299C49.7098 62.9026 56.9881 50.0769 60.3786 42.7735C61.7099 39.9077 61.6914 36.6967 60.5327 33.9171L71.1948 20.2784C75.7185 22.0472 78.991 20.4632 80.1928 18.0597C81.4624 15.5267 80.6181 11.6995 75.8786 9.12939C74.2763 6.3005 71.9712 4.62415 69.4937 4.51323C67.5461 4.40846 65.7588 5.35141 64.7049 6.99076C63.4353 8.96909 63.3983 11.6254 64.5693 14.3926L53.9011 27.7911C51.0353 26.8543 47.8366 27.0885 45.1187 28.6416C31.751 36.2714 15.8868 47.352 16.226 56.8011ZM67.6446 15.5889C68.0329 15.102 68.1007 14.4302 67.811 13.8818C66.751 11.8356 66.5846 9.90051 67.3611 8.69244C67.8048 8.00218 68.5259 7.59542 69.3456 7.66937C70.7816 7.73716 72.2669 8.99442 73.3207 11.0344C73.4748 11.3302 73.7152 11.5706 74.0171 11.7246C77.074 13.2531 78.017 15.3609 77.3698 16.6551C76.7227 17.9493 74.4733 18.4608 71.4164 16.9324C70.7508 16.5873 69.9373 16.7722 69.4688 17.3638L58.7635 31.052C58.5478 30.7993 58.3444 30.5343 58.0979 30.294C57.6912 29.8995 57.2474 29.5421 56.7914 29.2216L67.6446 15.5889ZM46.6843 31.379C47.8676 30.701 49.1803 30.3744 50.487 30.3744C52.4592 30.3744 54.419 31.1263 55.9043 32.5561C56.4836 33.1169 56.9582 33.7579 57.328 34.4481C57.328 34.4481 57.328 34.4543 57.3341 34.4543C58.4681 36.5744 58.5791 39.1629 57.519 41.4432C54.3389 48.2966 47.5718 60.3146 37.9945 63.7541C33.7666 65.2702 29.3169 64.9497 24.7993 62.7865C21.2433 61.0855 19.4745 59.0885 19.3882 56.685C19.1663 50.7254 29.3719 41.2645 46.6843 31.379ZM9.69413 64.9375C6.27974 64.9375 3.50023 67.717 3.50023 71.1314C3.50023 74.5458 6.27974 77.3253 9.69413 77.3253C13.1085 77.3253 15.888 74.5458 15.888 71.1314C15.888 67.717 13.1085 64.9375 9.69413 64.9375ZM9.69413 74.176C8.01778 74.176 6.65571 72.814 6.65571 71.1376C6.65571 69.4612 8.01775 68.0992 9.69413 68.0992C11.3705 68.0992 12.7325 69.4612 12.7325 71.1376C12.7325 72.8078 11.3705 74.176 9.69413 74.176ZM69.6736 33.7653C69.6736 37.3769 72.6134 40.3227 76.231 40.3227C79.8426 40.3227 82.7884 37.3829 82.7884 33.7653C82.7884 30.1537 79.8486 27.2079 76.231 27.2079C72.6132 27.2079 69.6736 30.1477 69.6736 33.7653ZM79.6269 33.7653C79.6269 35.6389 78.0985 37.1672 76.225 37.1672C74.3515 37.1672 72.8231 35.6388 72.8231 33.7653C72.8231 31.8918 74.3515 30.3634 76.225 30.3634C78.0985 30.3634 79.6269 31.8918 79.6269 33.7653ZM28.9293 145.162H123.52C126.256 145.162 128.487 142.931 128.487 140.194C128.487 137.458 126.256 135.227 123.52 135.227L102.522 135.233C103.89 133.97 104.944 132.392 105.498 130.599C109.03 119.203 105.11 109.244 94.4541 102.557C93.9179 102.218 93.2215 102.237 92.7037 102.607C92.186 102.976 91.9395 103.617 92.0751 104.246C93.1844 109.152 92.5805 113.565 90.1708 117.83C88.8827 110.409 82.5963 100.911 78.843 97.393C77.3701 96.0125 75.8108 94.7245 74.3193 95.4764C72.7293 96.2776 72.9635 98.2005 73.3826 101.683C73.5613 103.18 73.7893 105.041 73.8941 107.044C74.1529 111.827 70.7017 118.471 68.298 122.47C67.2996 119.925 65.3274 117.577 63.1642 115.013C62.2397 113.916 61.2722 112.764 60.3045 111.512C58.924 109.725 58.0242 108.554 56.6252 108.776C55.3618 108.998 54.9858 110.138 54.5606 111.457C53.932 113.386 52.761 116.979 48.7181 121.201C43.1775 126.982 45.0449 131.635 46.6534 133.897C46.9986 134.384 47.4053 134.827 47.8367 135.24L28.9291 135.234C26.1926 135.234 23.9617 137.465 23.9617 140.201C23.9679 142.938 26.1931 145.162 28.9293 145.162ZM49.2301 132.053C47.3566 129.415 47.9359 126.58 51.0051 123.375C55.233 118.969 56.6627 115.166 57.4147 112.911C57.5811 113.12 57.729 113.317 57.8214 113.428C58.8137 114.716 59.8182 115.906 60.7613 117.034C63.7935 120.633 66.1847 123.48 65.7965 126.66C65.7102 127.375 66.1169 128.059 66.7949 128.324C67.4666 128.583 68.2309 128.355 68.65 127.77C69.0136 127.264 77.5063 115.228 77.0564 106.871C76.9454 104.763 76.7112 102.847 76.5263 101.306C76.4524 100.665 76.3661 99.9623 76.3045 99.3398C76.4216 99.4446 76.551 99.5617 76.6866 99.6973C81.4136 104.129 89.1113 117.478 86.8802 122.488C86.5597 123.203 86.8124 124.041 87.4719 124.46C88.1313 124.879 89.0003 124.75 89.5119 124.164C94.0725 118.888 96.1187 113.348 95.7119 107.326C101.228 111.764 105.832 118.876 102.485 129.68C101.468 132.959 98.1464 135.251 94.4054 135.251L56.0521 135.233C53.2355 135.227 50.623 134.013 49.2301 132.053ZM28.9293 138.382H123.513C124.512 138.382 125.325 139.196 125.325 140.194C125.331 141.193 124.518 142.006 123.52 142.006H28.9292C27.9308 142.006 27.1173 141.193 27.1173 140.194C27.1235 139.196 27.931 138.382 28.9293 138.382Z" fill="#EAD4B2"/>
</svg>
