<svg width="138" height="139" viewBox="0 0 138 139" fill="none" xmlns="http://www.w3.org/2000/svg">
<path d="M103.651 86.0357L112.613 89.746C113.87 90.2698 115.312 89.672 115.836 88.4147C116.354 87.1575 115.756 85.7154 114.498 85.1914L105.556 81.4873C106.684 78.2209 107.362 74.8189 107.577 71.3737C107.633 70.0302 106.61 68.89 105.266 68.8037C103.923 68.7236 102.764 69.7282 102.659 71.0656C101.673 93.7267 76.9231 109.228 56.1348 100.143C45.7378 95.8353 38.1817 86.6216 35.9933 75.5905C33.7993 64.5525 37.2629 53.1503 45.2257 45.2001C53.1822 37.2497 64.5893 33.7922 75.6225 35.9987C86.6543 38.1988 95.8617 45.7609 100.164 56.1575C101.015 58.1975 101.662 60.3175 102.081 62.4869C102.204 63.134 102.58 63.701 103.116 64.0646C103.659 64.4344 104.324 64.57 104.965 64.4468C108.626 63.4299 106.155 59.0356 105.538 56.5704L114.499 52.8601C115.732 52.3178 116.305 50.8941 115.788 49.6554C115.276 48.4166 113.865 47.8126 112.614 48.3057L103.653 52.0159C99.9115 44.3429 93.7053 38.1428 86.0386 34.402L89.755 25.4348L89.7488 25.4409C90.2357 24.1898 89.6379 22.7785 88.3991 22.267C87.1542 21.7493 85.7367 22.3224 85.1944 23.5551L81.478 32.5223L81.4842 32.5162C73.4106 29.7305 64.6402 29.7305 56.5732 32.5162L52.863 23.5551V23.5489C52.3206 22.3224 50.897 21.7493 49.6583 22.267C48.4195 22.7785 47.8155 24.1899 48.3086 25.4409L52.0188 34.402C44.3458 38.143 38.1457 44.3431 34.4049 52.0159L25.4376 48.2996L25.4438 48.3057C24.1927 47.8127 22.7813 48.4167 22.2637 49.6554C21.7521 50.8942 22.3253 52.3179 23.5518 52.8601L32.519 56.5704C29.7334 64.644 29.7334 73.408 32.519 81.4813L23.5579 85.1916H23.5518C22.3253 85.7339 21.7522 87.1576 22.2698 88.3963C22.7814 89.6351 24.1928 90.2329 25.4438 89.746L34.4049 86.0358C38.1459 93.7088 44.3459 99.9089 52.0188 103.65L48.3086 112.611C47.7847 113.868 48.3825 115.31 49.6398 115.834C50.8971 116.352 52.3392 115.76 52.8631 114.503L56.5734 105.536C64.6347 108.365 73.4236 108.365 81.4843 105.536L85.1945 114.497V114.503C85.7184 115.76 87.1606 116.352 88.4179 115.834C89.6751 115.31 90.273 113.868 89.7491 112.611L86.0389 103.65C93.7119 99.9087 99.9106 93.7086 103.651 86.0357Z" fill="#EAD4B2"/>
<path d="M69.4223 23.5557C70.0756 23.5557 70.7042 23.2969 71.1665 22.8347C71.6288 22.3724 71.8876 21.7438 71.8876 21.0905V2.46522C71.8876 1.10319 70.7844 0 69.4224 0C68.0603 0 66.9572 1.10319 66.9572 2.46522V21.0905C66.9572 22.4525 68.0603 23.5557 69.4223 23.5557Z" fill="#EAD4B2"/>
<path d="M33.6691 36.5957C34.6367 37.5263 36.1713 37.5078 37.1204 36.5587C38.0695 35.6096 38.0819 34.075 37.1513 33.1074L23.9807 19.9369C23.0131 19.0063 21.4786 19.0186 20.5294 19.9677C19.5803 20.923 19.568 22.4575 20.4986 23.4252L33.6691 36.5957Z" fill="#EAD4B2"/>
<path d="M23.5557 68.6318C23.5557 67.9785 23.2969 67.3499 22.8347 66.8876C22.3724 66.4253 21.7438 66.1665 21.0905 66.1665H2.46522C1.10319 66.1665 0 67.2697 0 68.6317C0 69.9938 1.10319 71.0969 2.46522 71.0969H21.0905C22.4525 71.0969 23.5557 69.9938 23.5557 68.6318Z" fill="#EAD4B2"/>
<path d="M33.1089 100.895L19.9384 114.066V114.072C19.0078 115.039 19.0201 116.574 19.9692 117.523C20.9183 118.472 22.4529 118.485 23.4205 117.554L36.5972 104.383C37.5278 103.416 37.5093 101.881 36.5602 100.932C35.6111 99.9829 34.0766 99.9644 33.1089 100.895Z" fill="#EAD4B2"/>
<path d="M68.6334 114.497C67.2714 114.497 66.1682 115.6 66.1682 116.962V135.587C66.1682 136.949 67.2714 138.053 68.6334 138.053C69.9955 138.053 71.0987 136.949 71.0987 135.587V116.962C71.0987 115.6 69.9955 114.497 68.6334 114.497Z" fill="#EAD4B2"/>
<path d="M104.385 101.457C103.417 100.526 101.883 100.545 100.934 101.494C99.9847 102.443 99.9662 103.977 100.897 104.945L114.067 118.116C114.53 118.578 115.158 118.843 115.812 118.843C116.471 118.843 117.1 118.584 117.562 118.122C118.024 117.66 118.283 117.031 118.283 116.371C118.283 115.718 118.018 115.09 117.556 114.627L104.385 101.457Z" fill="#EAD4B2"/>
<path d="M135.588 66.9563H116.963C115.619 66.9871 114.541 68.078 114.541 69.4215C114.541 70.7651 115.619 71.8621 116.963 71.8867H135.588C136.932 71.8621 138.004 70.7651 138.004 69.4215C138.004 68.078 136.932 66.9871 135.588 66.9563Z" fill="#EAD4B2"/>
<path d="M103.202 37.8783C103.855 37.8783 104.484 37.6195 104.946 37.1572L118.116 23.9867V23.9806C119.047 23.013 119.029 21.4784 118.079 20.5292C117.13 19.5801 115.596 19.5678 114.628 20.4984L101.458 33.6689C100.767 34.3777 100.57 35.4316 100.946 36.3437C101.328 37.262 102.209 37.8598 103.202 37.8783Z" fill="#EAD4B2"/>
<path d="M69.0279 86.2835C64.5474 86.2896 60.2455 84.5454 57.0345 81.427C56.0546 80.4902 54.4953 80.5149 53.5524 81.4948C52.6095 82.4747 52.6341 84.0279 53.6079 84.9769C60.0113 91.1646 69.4958 92.9334 77.6937 89.4512C85.8906 85.9753 91.2154 77.9324 91.2154 69.0273C90.0506 39.6166 47.9995 39.623 46.8414 69.0273C47.1003 71.7761 46.7613 78.013 50.9029 77.175C52.2033 76.7682 52.9243 75.3877 52.5237 74.0873C50.9583 68.8549 51.9505 63.1911 55.1923 58.8029C58.4402 54.4149 63.5679 51.8079 69.0283 51.7709C91.8629 52.5783 91.8625 85.4757 69.0279 86.2835Z" fill="#EAD4B2"/>
</svg>
